<svg xmlns="http://www.w3.org/2000/svg" xmlns:xlink="http://www.w3.org/1999/xlink" width="150" zoomAndPan="magnify" viewBox="0 0 112.5 35.25" height="47" preserveAspectRatio="xMidYMid meet" version="1.0"><defs><clipPath id="7bd75c12a3"><path d="M 1.453125 0.894531 L 111.082031 0.894531 L 111.082031 34.089844 L 1.453125 34.089844 Z M 1.453125 0.894531 " clip-rule="nonzero"/></clipPath></defs><g clip-path="url(#7bd75c12a3)"><path fill="#000000" d="M 94.90625 34.0625 L 17.910156 34.0625 C 8.820312 34.0625 1.453125 26.640625 1.453125 17.492188 C 1.453125 8.339844 8.820312 0.925781 17.910156 0.925781 L 94.90625 0.925781 C 103.992188 0.925781 111.363281 8.339844 111.363281 17.492188 C 111.363281 26.640625 103.992188 34.0625 94.90625 34.0625 Z M 94.90625 34.0625 " fill-opacity="1" fill-rule="nonzero"/></g><path fill="#ffffff" d="M 8.859375 13.226562 C 9.613281 13.101562 10.503906 13.015625 11.476562 13.015625 C 13.246094 13.015625 14.503906 13.445312 15.339844 14.214844 C 16.207031 14.996094 16.699219 16.113281 16.699219 17.664062 C 16.699219 19.230469 16.207031 20.515625 15.328125 21.394531 C 14.421875 22.289062 12.953125 22.773438 11.097656 22.773438 C 10.207031 22.773438 9.488281 22.734375 8.859375 22.660156 Z M 10.09375 21.722656 C 10.40625 21.761719 10.859375 21.777344 11.339844 21.777344 C 13.988281 21.777344 15.402344 20.292969 15.402344 17.699219 C 15.414062 15.433594 14.144531 13.992188 11.539062 13.992188 C 10.902344 13.992188 10.417969 14.046875 10.09375 14.117188 Z M 10.09375 21.722656 " fill-opacity="1" fill-rule="nonzero"/><path fill="#ffffff" d="M 11.097656 23.199219 C 10.25 23.199219 9.5 23.164062 8.8125 23.085938 L 8.433594 23.042969 L 8.433594 12.863281 L 8.789062 12.804688 C 9.632812 12.660156 10.558594 12.585938 11.476562 12.585938 C 13.289062 12.585938 14.683594 13.027344 15.628906 13.894531 C 16.621094 14.796875 17.128906 16.0625 17.128906 17.664062 C 17.128906 19.316406 16.609375 20.710938 15.628906 21.695312 C 14.636719 22.679688 13.074219 23.199219 11.097656 23.199219 Z M 9.289062 22.273438 C 9.84375 22.320312 10.4375 22.34375 11.097656 22.34375 C 12.839844 22.34375 14.203125 21.910156 15.035156 21.085938 C 15.851562 20.261719 16.28125 19.074219 16.28125 17.65625 C 16.28125 16.292969 15.882812 15.269531 15.058594 14.523438 C 14.277344 13.804688 13.074219 13.441406 11.476562 13.441406 C 10.730469 13.441406 9.980469 13.496094 9.28125 13.589844 L 9.28125 22.273438 Z M 11.339844 22.207031 C 10.761719 22.207031 10.335938 22.1875 10.035156 22.144531 L 9.667969 22.097656 L 9.667969 13.78125 L 10.003906 13.707031 C 10.292969 13.644531 10.792969 13.566406 11.539062 13.566406 C 12.933594 13.566406 14.015625 13.949219 14.761719 14.707031 C 15.46875 15.414062 15.835938 16.449219 15.820312 17.699219 C 15.828125 20.5625 14.191406 22.207031 11.339844 22.207031 Z M 10.523438 21.328125 C 10.746094 21.339844 11.019531 21.34375 11.339844 21.34375 C 13.722656 21.34375 14.980469 20.085938 14.980469 17.699219 C 14.984375 16.667969 14.714844 15.871094 14.167969 15.3125 C 13.585938 14.722656 12.699219 14.421875 11.542969 14.421875 C 11.109375 14.421875 10.773438 14.445312 10.527344 14.480469 L 10.527344 21.328125 Z M 10.523438 21.328125 " fill-opacity="1" fill-rule="nonzero"/><path fill="#ffffff" d="M 26.441406 17.785156 C 26.441406 21.074219 24.445312 22.839844 22.011719 22.839844 C 19.480469 22.839844 17.722656 20.859375 17.722656 17.953125 C 17.722656 14.90625 19.59375 12.90625 22.140625 12.90625 C 24.757812 12.914062 26.441406 14.925781 26.441406 17.785156 Z M 19.027344 17.929688 C 19.027344 19.996094 20.136719 21.835938 22.085938 21.835938 C 24.035156 21.835938 25.140625 20.023438 25.140625 17.84375 C 25.140625 15.917969 24.148438 13.925781 22.097656 13.925781 C 20.046875 13.925781 19.027344 15.832031 19.027344 17.929688 Z M 19.027344 17.929688 " fill-opacity="1" fill-rule="nonzero"/><path fill="#ffffff" d="M 22.011719 23.273438 C 19.238281 23.273438 17.300781 21.085938 17.300781 17.953125 C 17.300781 16.367188 17.773438 14.996094 18.660156 14.003906 C 19.535156 13.023438 20.773438 12.484375 22.140625 12.484375 C 23.542969 12.484375 24.734375 13.003906 25.59375 13.992188 C 26.429688 14.949219 26.867188 16.261719 26.867188 17.785156 C 26.867188 19.457031 26.375 20.855469 25.449219 21.84375 C 24.582031 22.761719 23.359375 23.273438 22.011719 23.273438 Z M 22.140625 13.335938 C 19.75 13.335938 18.152344 15.191406 18.152344 17.953125 C 18.152344 20.617188 19.703125 22.410156 22.011719 22.410156 C 24.445312 22.410156 26.019531 20.59375 26.019531 17.777344 C 26.019531 15.125 24.460938 13.335938 22.140625 13.335938 Z M 22.085938 22.261719 C 21.039062 22.261719 20.113281 21.78125 19.480469 20.910156 C 18.914062 20.128906 18.601562 19.066406 18.601562 17.929688 C 18.601562 16.761719 18.902344 15.679688 19.445312 14.894531 C 20.074219 13.980469 20.996094 13.496094 22.097656 13.496094 C 23.191406 13.496094 24.101562 13.984375 24.738281 14.917969 C 25.273438 15.699219 25.5625 16.734375 25.5625 17.84375 C 25.5625 19.03125 25.25 20.121094 24.683594 20.910156 C 24.050781 21.792969 23.148438 22.261719 22.085938 22.261719 Z M 22.097656 14.347656 C 21.273438 14.347656 20.617188 14.695312 20.140625 15.386719 C 19.695312 16.027344 19.449219 16.929688 19.449219 17.929688 C 19.449219 19.601562 20.273438 21.40625 22.085938 21.40625 C 23.902344 21.40625 24.71875 19.617188 24.71875 17.84375 C 24.714844 16.160156 23.894531 14.347656 22.097656 14.347656 Z M 22.097656 14.347656 " fill-opacity="1" fill-rule="nonzero"/><path fill="#ffffff" d="M 29.601562 22.691406 L 27.179688 13.082031 L 28.480469 13.082031 L 29.613281 17.941406 C 29.894531 19.140625 30.148438 20.332031 30.320312 21.261719 L 30.351562 21.261719 C 30.507812 20.304688 30.804688 19.164062 31.128906 17.921875 L 32.402344 13.078125 L 33.691406 13.078125 L 34.851562 17.953125 C 35.121094 19.09375 35.375 20.230469 35.519531 21.242188 L 35.550781 21.242188 C 35.75 20.1875 36.019531 19.117188 36.3125 17.921875 L 37.570312 13.078125 L 38.828125 13.078125 L 36.128906 22.683594 L 34.839844 22.683594 L 33.636719 17.679688 C 33.34375 16.457031 33.144531 15.511719 33.011719 14.542969 L 32.980469 14.542969 C 32.824219 15.5 32.597656 16.4375 32.246094 17.679688 L 30.886719 22.683594 L 29.601562 22.683594 Z M 29.601562 22.691406 " fill-opacity="1" fill-rule="nonzero"/><path fill="#ffffff" d="M 36.445312 23.113281 L 34.503906 23.113281 L 33.222656 17.785156 C 33.125 17.394531 33.042969 17.03125 32.964844 16.675781 C 32.871094 17.019531 32.769531 17.394531 32.65625 17.800781 L 31.210938 23.113281 L 29.269531 23.113281 L 26.632812 12.652344 L 28.816406 12.652344 L 30.027344 17.84375 C 30.140625 18.316406 30.25 18.796875 30.347656 19.253906 C 30.464844 18.78125 30.59375 18.296875 30.71875 17.820312 L 32.078125 12.660156 L 34.027344 12.660156 L 35.265625 17.863281 C 35.371094 18.296875 35.472656 18.742188 35.566406 19.183594 C 35.660156 18.800781 35.753906 18.40625 35.855469 18.015625 L 35.90625 17.832031 L 37.246094 12.664062 L 39.394531 12.664062 Z M 35.171875 22.261719 L 35.804688 22.261719 L 38.261719 13.507812 L 37.890625 13.507812 L 36.71875 18.03125 L 36.675781 18.207031 C 36.390625 19.347656 36.144531 20.332031 35.960938 21.320312 L 35.894531 21.667969 L 35.148438 21.667969 L 35.09375 21.296875 C 34.953125 20.296875 34.695312 19.140625 34.4375 18.042969 L 33.355469 13.5 L 32.726562 13.5 L 31.535156 18.039062 C 31.234375 19.1875 30.921875 20.375 30.765625 21.332031 L 30.707031 21.691406 L 29.96875 21.691406 L 29.902344 21.339844 C 29.730469 20.417969 29.472656 19.21875 29.195312 18.039062 L 28.144531 13.507812 L 27.722656 13.507812 L 29.925781 22.261719 L 30.554688 22.261719 L 31.832031 17.566406 C 32.199219 16.273438 32.410156 15.386719 32.558594 14.476562 L 32.621094 14.117188 L 33.378906 14.117188 L 33.425781 14.488281 C 33.558594 15.5 33.769531 16.449219 34.039062 17.578125 Z M 35.171875 22.261719 " fill-opacity="1" fill-rule="nonzero"/><path fill="#ffffff" d="M 40.019531 22.691406 L 40.019531 13.082031 L 41.378906 13.082031 L 44.425781 17.941406 C 45.117188 19.066406 45.683594 20.078125 46.121094 21.0625 L 46.164062 21.046875 C 46.046875 19.765625 46.019531 18.59375 46.019531 17.097656 L 46.019531 13.082031 L 47.179688 13.082031 L 47.179688 22.691406 L 45.933594 22.691406 L 42.90625 17.8125 C 42.242188 16.746094 41.609375 15.644531 41.140625 14.609375 L 41.097656 14.621094 C 41.167969 15.832031 41.179688 16.988281 41.179688 18.582031 L 41.179688 22.691406 Z M 40.019531 22.691406 " fill-opacity="1" fill-rule="nonzero"/><path fill="#ffffff" d="M 47.605469 23.113281 L 45.699219 23.113281 L 42.546875 18.042969 C 42.179688 17.457031 41.859375 16.921875 41.589844 16.433594 C 41.601562 17.082031 41.609375 17.785156 41.609375 18.589844 L 41.609375 23.121094 L 39.597656 23.121094 L 39.597656 12.652344 L 41.613281 12.652344 L 44.785156 17.71875 C 45.097656 18.230469 45.382812 18.703125 45.628906 19.148438 C 45.601562 18.484375 45.597656 17.820312 45.597656 17.105469 L 45.597656 12.660156 L 47.605469 12.660156 Z M 46.167969 22.261719 L 46.753906 22.261719 L 46.753906 13.511719 L 46.441406 13.511719 L 46.441406 17.097656 C 46.441406 18.492188 46.464844 19.691406 46.578125 21.007812 L 46.609375 21.34375 L 45.878906 21.585938 L 45.722656 21.238281 C 45.332031 20.351562 44.796875 19.375 44.050781 18.164062 L 41.132812 13.507812 L 40.441406 13.507812 L 40.441406 22.261719 L 40.753906 22.261719 L 40.753906 18.582031 C 40.753906 17.003906 40.742188 15.851562 40.671875 14.644531 L 40.652344 14.320312 L 41.367188 14.078125 L 41.523438 14.425781 C 41.914062 15.300781 42.46875 16.304688 43.269531 17.582031 Z M 46.167969 22.261719 " fill-opacity="1" fill-rule="nonzero"/><path fill="#ffffff" d="M 49.316406 13.082031 L 50.5625 13.082031 L 50.5625 21.648438 L 54.640625 21.648438 L 54.640625 22.691406 L 49.316406 22.691406 Z M 49.316406 13.082031 " fill-opacity="1" fill-rule="nonzero"/><path fill="#ffffff" d="M 55.0625 23.113281 L 48.894531 23.113281 L 48.894531 12.652344 L 50.988281 12.652344 L 50.988281 21.21875 L 55.0625 21.21875 Z M 49.742188 22.261719 L 54.214844 22.261719 L 54.214844 22.074219 L 50.132812 22.074219 L 50.132812 13.511719 L 49.738281 13.511719 L 49.738281 22.261719 Z M 49.742188 22.261719 " fill-opacity="1" fill-rule="nonzero"/><path fill="#ffffff" d="M 63.609375 17.785156 C 63.609375 21.074219 61.613281 22.839844 59.183594 22.839844 C 56.648438 22.839844 54.894531 20.859375 54.894531 17.953125 C 54.894531 14.90625 56.765625 12.90625 59.308594 12.90625 C 61.925781 12.914062 63.609375 14.925781 63.609375 17.785156 Z M 56.199219 17.929688 C 56.199219 19.996094 57.304688 21.835938 59.253906 21.835938 C 61.210938 21.835938 62.3125 20.023438 62.3125 17.84375 C 62.3125 15.917969 61.320312 13.925781 59.265625 13.925781 C 57.214844 13.925781 56.199219 15.832031 56.199219 17.929688 Z M 56.199219 17.929688 " fill-opacity="1" fill-rule="nonzero"/><path fill="#ffffff" d="M 59.183594 23.273438 C 56.410156 23.273438 54.472656 21.085938 54.472656 17.953125 C 54.472656 16.367188 54.941406 14.996094 55.832031 14.003906 C 56.703125 13.023438 57.941406 12.484375 59.308594 12.484375 C 60.710938 12.484375 61.902344 13.003906 62.761719 13.992188 C 63.597656 14.949219 64.039062 16.261719 64.039062 17.785156 C 64.039062 19.457031 63.542969 20.855469 62.617188 21.84375 C 61.75 22.761719 60.53125 23.273438 59.183594 23.273438 Z M 59.308594 13.335938 C 56.921875 13.335938 55.320312 15.191406 55.320312 17.953125 C 55.320312 20.617188 56.871094 22.410156 59.183594 22.410156 C 61.613281 22.410156 63.191406 20.59375 63.191406 17.777344 C 63.191406 15.125 61.632812 13.335938 59.308594 13.335938 Z M 59.253906 22.261719 C 58.207031 22.261719 57.28125 21.78125 56.648438 20.910156 C 56.085938 20.128906 55.769531 19.066406 55.769531 17.929688 C 55.769531 16.761719 56.070312 15.679688 56.613281 14.894531 C 57.246094 13.980469 58.164062 13.496094 59.265625 13.496094 C 60.363281 13.496094 61.269531 13.984375 61.90625 14.917969 C 62.445312 15.699219 62.730469 16.734375 62.730469 17.84375 C 62.730469 19.03125 62.417969 20.121094 61.855469 20.910156 C 61.222656 21.792969 60.320312 22.261719 59.253906 22.261719 Z M 59.265625 14.347656 C 58.441406 14.347656 57.785156 14.695312 57.3125 15.386719 C 56.867188 16.027344 56.621094 16.929688 56.621094 17.929688 C 56.621094 19.601562 57.445312 21.40625 59.253906 21.40625 C 61.070312 21.40625 61.890625 19.617188 61.890625 17.84375 C 61.882812 16.160156 61.066406 14.347656 59.265625 14.347656 Z M 59.265625 14.347656 " fill-opacity="1" fill-rule="nonzero"/><path fill="#ffffff" d="M 66.558594 19.667969 L 65.566406 22.691406 L 64.289062 22.691406 L 67.546875 13.082031 L 69.019531 13.082031 L 72.273438 22.691406 L 70.957031 22.691406 L 69.941406 19.667969 Z M 69.699219 18.699219 L 68.75 15.9375 C 68.539062 15.304688 68.394531 14.738281 68.253906 14.183594 L 68.226562 14.183594 C 68.082031 14.742188 67.941406 15.34375 67.742188 15.925781 L 66.8125 18.703125 L 69.699219 18.703125 Z M 69.699219 18.699219 " fill-opacity="1" fill-rule="nonzero"/><path fill="#ffffff" d="M 72.871094 23.113281 L 70.65625 23.113281 L 69.640625 20.089844 L 66.867188 20.089844 L 65.871094 23.113281 L 63.699219 23.113281 L 67.246094 12.652344 L 69.328125 12.652344 Z M 71.261719 22.261719 L 71.683594 22.261719 L 68.71875 13.511719 L 67.851562 13.511719 L 64.886719 22.265625 L 65.257812 22.265625 L 66.25 19.242188 L 70.246094 19.242188 Z M 70.296875 19.128906 L 66.222656 19.128906 L 67.347656 15.785156 C 67.507812 15.304688 67.636719 14.808594 67.757812 14.332031 C 67.78125 14.246094 67.796875 14.160156 67.820312 14.078125 L 67.90625 13.753906 L 68.59375 13.753906 L 68.699219 14.179688 C 68.832031 14.695312 68.964844 15.226562 69.164062 15.804688 Z M 67.40625 18.269531 L 69.105469 18.269531 L 68.351562 16.070312 C 68.316406 15.960938 68.28125 15.855469 68.25 15.75 C 68.21875 15.851562 68.183594 15.949219 68.152344 16.050781 Z M 67.40625 18.269531 " fill-opacity="1" fill-rule="nonzero"/><path fill="#ffffff" d="M 73.675781 13.226562 C 74.429688 13.101562 75.320312 13.015625 76.292969 13.015625 C 78.0625 13.015625 79.320312 13.445312 80.15625 14.214844 C 81.023438 14.996094 81.515625 16.113281 81.515625 17.664062 C 81.515625 19.230469 81.023438 20.515625 80.144531 21.394531 C 79.234375 22.289062 77.765625 22.773438 75.914062 22.773438 C 75.023438 22.773438 74.300781 22.734375 73.675781 22.660156 Z M 74.910156 21.722656 C 75.222656 21.761719 75.671875 21.777344 76.15625 21.777344 C 78.800781 21.777344 80.214844 20.292969 80.214844 17.699219 C 80.226562 15.433594 78.957031 13.992188 76.351562 13.992188 C 75.714844 13.992188 75.234375 14.046875 74.910156 14.117188 Z M 74.910156 21.722656 " fill-opacity="1" fill-rule="nonzero"/><path fill="#ffffff" d="M 75.914062 23.199219 C 75.066406 23.199219 74.3125 23.164062 73.628906 23.085938 L 73.25 23.042969 L 73.25 12.863281 L 73.605469 12.804688 C 74.445312 12.660156 75.371094 12.585938 76.292969 12.585938 C 78.105469 12.585938 79.5 13.027344 80.445312 13.894531 C 81.4375 14.796875 81.941406 16.0625 81.941406 17.664062 C 81.941406 19.316406 81.425781 20.710938 80.445312 21.695312 C 79.453125 22.679688 77.882812 23.199219 75.914062 23.199219 Z M 74.101562 22.273438 C 74.65625 22.320312 75.253906 22.34375 75.914062 22.34375 C 77.652344 22.34375 79.019531 21.910156 79.847656 21.085938 C 80.667969 20.261719 81.09375 19.074219 81.09375 17.65625 C 81.09375 16.292969 80.699219 15.269531 79.875 14.523438 C 79.089844 13.804688 77.886719 13.441406 76.292969 13.441406 C 75.546875 13.441406 74.796875 13.496094 74.097656 13.589844 L 74.097656 22.273438 Z M 76.15625 22.207031 C 75.578125 22.207031 75.148438 22.1875 74.847656 22.144531 L 74.480469 22.097656 L 74.480469 13.78125 L 74.820312 13.707031 C 75.109375 13.644531 75.609375 13.566406 76.351562 13.566406 C 77.75 13.566406 78.832031 13.949219 79.578125 14.707031 C 80.28125 15.414062 80.648438 16.449219 80.636719 17.699219 C 80.644531 20.5625 79.007812 22.207031 76.15625 22.207031 Z M 75.332031 21.328125 C 75.554688 21.339844 75.828125 21.34375 76.148438 21.34375 C 78.53125 21.34375 79.789062 20.085938 79.789062 17.699219 C 79.792969 16.667969 79.523438 15.871094 78.976562 15.3125 C 78.394531 14.722656 77.507812 14.421875 76.351562 14.421875 C 75.921875 14.421875 75.582031 14.445312 75.335938 14.480469 L 75.335938 21.328125 Z M 75.332031 21.328125 " fill-opacity="1" fill-rule="nonzero"/><path fill="#ffffff" d="M 107.613281 17.480469 C 107.613281 18.207031 107.542969 18.929688 107.402344 19.640625 C 107.261719 20.355469 107.054688 21.046875 106.777344 21.71875 C 106.5 22.394531 106.160156 23.03125 105.761719 23.636719 C 105.359375 24.242188 104.902344 24.800781 104.390625 25.316406 C 103.882812 25.828125 103.324219 26.289062 102.722656 26.691406 C 102.125 27.097656 101.488281 27.4375 100.820312 27.71875 C 100.15625 27.996094 99.464844 28.207031 98.757812 28.347656 C 98.050781 28.488281 97.332031 28.558594 96.609375 28.558594 C 95.886719 28.558594 95.171875 28.488281 94.464844 28.347656 C 93.753906 28.207031 93.066406 27.996094 92.398438 27.71875 C 91.730469 27.4375 91.097656 27.097656 90.496094 26.691406 C 89.898438 26.289062 89.339844 25.828125 88.828125 25.316406 C 88.320312 24.800781 87.863281 24.242188 87.460938 23.636719 C 87.058594 23.03125 86.722656 22.394531 86.445312 21.71875 C 86.167969 21.046875 85.960938 20.355469 85.816406 19.640625 C 85.675781 18.929688 85.605469 18.207031 85.605469 17.480469 C 85.605469 16.753906 85.675781 16.03125 85.816406 15.320312 C 85.960938 14.605469 86.167969 13.914062 86.445312 13.242188 C 86.722656 12.570312 87.058594 11.929688 87.460938 11.324219 C 87.863281 10.71875 88.320312 10.160156 88.828125 9.644531 C 89.339844 9.132812 89.898438 8.671875 90.496094 8.269531 C 91.097656 7.863281 91.730469 7.523438 92.398438 7.246094 C 93.066406 6.964844 93.753906 6.757812 94.464844 6.613281 C 95.171875 6.472656 95.886719 6.402344 96.609375 6.402344 C 97.332031 6.402344 98.050781 6.472656 98.757812 6.613281 C 99.464844 6.757812 100.15625 6.964844 100.820312 7.246094 C 101.488281 7.523438 102.125 7.863281 102.722656 8.269531 C 103.324219 8.671875 103.882812 9.132812 104.390625 9.644531 C 104.902344 10.160156 105.359375 10.71875 105.761719 11.324219 C 106.160156 11.929688 106.5 12.570312 106.777344 13.242188 C 107.054688 13.914062 107.261719 14.605469 107.402344 15.320312 C 107.542969 16.03125 107.613281 16.753906 107.613281 17.480469 Z M 107.613281 17.480469 " fill-opacity="1" fill-rule="nonzero"/><path fill="#ffffff" d="M 96.609375 28.984375 C 95.070312 28.984375 93.574219 28.679688 92.164062 28.082031 C 90.804688 27.5 89.582031 26.671875 88.53125 25.617188 C 87.484375 24.5625 86.660156 23.328125 86.082031 21.957031 C 85.488281 20.539062 85.1875 19.03125 85.1875 17.480469 C 85.1875 15.929688 85.488281 14.421875 86.082031 13.003906 C 86.660156 11.636719 87.484375 10.40625 88.53125 9.34375 C 89.578125 8.292969 90.804688 7.460938 92.164062 6.878906 C 93.574219 6.28125 95.070312 5.976562 96.609375 5.976562 C 98.152344 5.976562 99.648438 6.28125 101.058594 6.878906 C 102.417969 7.460938 103.636719 8.292969 104.691406 9.34375 C 105.738281 10.398438 106.5625 11.636719 107.140625 13.003906 C 107.734375 14.421875 108.035156 15.929688 108.035156 17.480469 C 108.035156 19.03125 107.734375 20.539062 107.140625 21.957031 C 106.5625 23.328125 105.738281 24.554688 104.691406 25.617188 C 103.644531 26.671875 102.417969 27.5 101.058594 28.082031 C 99.648438 28.679688 98.152344 28.984375 96.609375 28.984375 Z M 96.609375 6.832031 C 90.773438 6.832031 86.035156 11.609375 86.035156 17.480469 C 86.035156 23.355469 90.78125 28.128906 96.609375 28.128906 C 102.445312 28.128906 107.1875 23.351562 107.1875 17.480469 C 107.1875 11.605469 102.441406 6.832031 96.609375 6.832031 Z M 96.609375 6.832031 " fill-opacity="1" fill-rule="nonzero"/><path fill="#000000" d="M 100.359375 18.03125 L 100.359375 8.398438 L 94.125 8.398438 L 94.125 18.03125 L 91.863281 18.03125 L 94.558594 22.726562 L 97.253906 27.425781 L 99.949219 22.726562 L 102.640625 18.03125 Z M 100.359375 18.03125 " fill-opacity="1" fill-rule="nonzero"/></svg>